# xmcd
#
# Track frame offsets:
# 150
# 19215
# 37065
# 59677
# 77580
# 95345
# 107340
# 108725
# 125085
#
# Disc length: 1964 seconds
#
#
# Revision: 1
# Processed by: cddbd v1.5.1PL0 Copyright (c) Steve Scherf et al.
# Submitted via: FreeRIP 2.90 
#
DISCID=7707aa09
DTITLE=Clube da Esquina - Classicos Estado de Minas - Vol. 1
DYEAR=1998
DGENRE=MPB
TTITLE0=Instrumental-Cais
TTITLE1=Instrumental-Nada Serah Como Antes
TTITLE2=Paula Santoro-Girassol da Cor do Seu Cabelo
TTITLE3=Instrumental-Sede do Peixe
TTITLE4=Instrumental-Gran Circo
TTITLE5=Marina Machado-Leila (Venha Ser Feliz)
TTITLE6=Vinheta "Latas"
TTITLE7=Andre Aguia-Maria Maria
TTITLE8=Instrumental-Tarde
EXTD=1998
EXTT0=
EXTT1=
EXTT2=
EXTT3=
EXTT4=
EXTT5=
EXTT6=
EXTT7=
EXTT8=
PLAYORDER=
